<svg width="32" height="32" viewBox="0 0 32 32" xmlns="http://www.w3.org/2000/svg">
  <ellipse cx="16" cy="15.729" ry="15.729" rx="16" fill="#a92121"/>
  <path d="M16 19.572q-1.47 0-2.477-1.007t-1.007-2.477q0-.926.462-1.742.463-.816 1.28-1.253l11.27-6.532-6.425 11.105q-.435.871-1.28 1.388-.843.518-1.823.518zm0-15.08q3.048 0 5.77 1.524l-2.45 1.416q-1.579-.6-3.32-.6-2.505 0-4.656 1.253-2.15 1.252-3.402 3.375-1.251 2.123-1.252 4.628 0 1.906.735 3.593t1.987 2.994q.381.327.381.817 0 .49-.354.817-.353.327-.844.327-.49 0-.817-.327Q6.2 22.73 5.301 20.608q-.898-2.123-.898-4.464 0-2.342.871-4.491.871-2.15 2.504-3.784 1.634-1.634 3.784-2.504 2.15-.87 4.437-.871Zm11.596 11.596q0 2.395-.898 4.519-.898 2.123-2.477 3.701-.327.327-.817.327-.49 0-.817-.327-.327-.326-.327-.817 0-.49.327-.817 1.252-1.306 1.986-2.994.735-1.688.735-3.593 0-1.742-.653-3.375l1.416-2.396q1.524 2.777 1.524 5.77z" fill="#fffefe"/>
</svg>
